<svg width="220" height="220" viewBox="0 0 220 220" fill="none" xmlns="http://www.w3.org/2000/svg">
<circle cx="110" cy="110" r="50" fill="#440197"/>
<path d="M111 0L128.321 52.5H93.6795L111 0Z" fill="#440197"/>
<path d="M111 220L93.6795 167.5H128.321L111 220Z" fill="#440197"/>
<path d="M32.1421 32.1421L81.5127 57.0178L57.0178 81.5127L32.1421 32.1421Z" fill="#440197"/>
<path d="M32.1421 187.64L57.0178 138.269L81.5127 162.764L32.1421 187.64Z" fill="#440197"/>
<path d="M0 110L52.5 92.6795V127.321L0 110Z" fill="#440197"/>
<path d="M220 110L167.5 127.321V92.6795L220 110Z" fill="#440197"/>
<path d="M187.64 187.64L138.269 162.764L162.764 138.269L187.64 187.64Z" fill="#440197"/>
<path d="M187.64 32.1421L162.764 81.5127L138.269 57.0178L187.64 32.1421Z" fill="#440197"/>
<path d="M88.1094 114.428L94.9375 97.8398H105.18V98.5264H104.363C103.621 98.5264 103.027 98.6562 102.582 98.916C102.273 99.0892 102.025 99.3799 101.84 99.7881C101.704 100.085 101.636 100.858 101.636 102.107V118.695C101.636 119.982 101.704 120.786 101.84 121.107C101.976 121.429 102.254 121.714 102.675 121.961C103.095 122.196 103.658 122.313 104.363 122.313H105.18V123H92.043V122.313H92.8594C93.6016 122.313 94.1953 122.184 94.6406 121.924C94.9499 121.751 95.1973 121.454 95.3828 121.033C95.5189 120.736 95.5869 119.957 95.5869 118.695V100.048L85.9385 123H85.4932L75.6963 100.215V117.935C75.6963 119.172 75.7272 119.932 75.7891 120.217C75.9499 120.835 76.2962 121.342 76.8281 121.738C77.3724 122.122 78.2197 122.313 79.3701 122.313V123H70.7607V122.313H71.0205C71.5771 122.326 72.0967 122.239 72.5791 122.054C73.0615 121.856 73.4264 121.596 73.6738 121.274C73.9212 120.953 74.113 120.501 74.249 119.92C74.2738 119.784 74.2861 119.153 74.2861 118.027V102.107C74.2861 100.833 74.2181 100.042 74.082 99.7324C73.946 99.4108 73.6676 99.1325 73.2471 98.8975C72.8265 98.6501 72.2637 98.5264 71.5586 98.5264H70.7607V97.8398H81.04L88.1094 114.428ZM116.146 111.607V118.584C116.146 119.945 116.226 120.804 116.387 121.163C116.56 121.509 116.857 121.788 117.277 121.998C117.71 122.208 118.496 122.313 119.634 122.313V123H106.85V122.313C108.012 122.313 108.798 122.208 109.206 121.998C109.627 121.775 109.917 121.491 110.078 121.145C110.251 120.798 110.338 119.945 110.338 118.584V102.256C110.338 100.895 110.251 100.042 110.078 99.6953C109.917 99.3366 109.627 99.0521 109.206 98.8418C108.785 98.6315 108 98.5264 106.85 98.5264V97.8398H117.815C121.427 97.8398 124.019 98.4831 125.59 99.7695C127.161 101.056 127.946 102.664 127.946 104.594C127.946 106.227 127.439 107.624 126.425 108.787C125.41 109.95 124.013 110.742 122.231 111.162C121.032 111.459 119.003 111.607 116.146 111.607ZM116.146 99.2871V110.16C116.554 110.185 116.863 110.197 117.073 110.197C118.582 110.197 119.745 109.752 120.562 108.861C121.378 107.958 121.786 106.567 121.786 104.687C121.786 102.819 121.378 101.452 120.562 100.586C119.745 99.7201 118.527 99.2871 116.906 99.2871H116.146ZM153.106 114.168L152.16 123H129.82V122.313H130.655C131.385 122.313 131.973 122.184 132.418 121.924C132.74 121.751 132.987 121.454 133.16 121.033C133.296 120.736 133.364 119.957 133.364 118.695V102.145C133.364 100.858 133.296 100.054 133.16 99.7324C133.024 99.4108 132.746 99.1325 132.325 98.8975C131.917 98.6501 131.36 98.5264 130.655 98.5264H129.82V97.8398H143.235V98.5264H142.141C141.411 98.5264 140.823 98.6562 140.378 98.916C140.056 99.0892 139.803 99.3861 139.617 99.8066C139.481 100.104 139.413 100.883 139.413 102.145V118.176C139.413 119.462 139.487 120.285 139.636 120.644C139.784 120.99 140.075 121.25 140.508 121.423C140.817 121.534 141.565 121.59 142.753 121.59H144.85C146.186 121.59 147.299 121.355 148.189 120.885C149.08 120.415 149.847 119.673 150.49 118.658C151.146 117.644 151.764 116.147 152.346 114.168H153.106Z" fill="white"/>
</svg>
